<?xml version="1.0" standalone="no"?>
<!DOCTYPE svg PUBLIC "-//W3C//DTD SVG 20010904//EN"
 "http://www.w3.org/TR/2001/REC-SVG-20010904/DTD/svg10.dtd">
<svg version="1.0" xmlns="http://www.w3.org/2000/svg"
 width="511.000000pt" height="558.000000pt" viewBox="0 0 511.000000 558.000000"
 preserveAspectRatio="xMidYMid meet">

<g transform="translate(0.000000,558.000000) scale(0.100000,-0.100000)"
fill="#000000" stroke="none">
<path d="M2520 5154 c-10 -11 -9 -14 8 -14 25 0 37 16 18 23 -8 3 -20 -1 -26
-9z"/>
<path d="M1041 5104 c0 -11 3 -14 6 -6 3 7 2 16 -1 19 -3 4 -6 -2 -5 -13z"/>
<path d="M1070 5022 c0 -45 5 -84 10 -87 7 -4 8 21 4 77 -4 46 -8 85 -10 87
-2 2 -4 -32 -4 -77z"/>
<path d="M1285 5000 c-16 -4 -48 -15 -70 -25 l-40 -17 80 -18 c44 -10 99 -26
123 -35 49 -20 72 -11 53 22 -10 17 -10 17 -11 1 0 -22 -3 -22 -68 2 -29 11
-64 20 -78 20 -43 0 -22 23 37 42 53 17 34 23 -26 8z"/>
<path d="M2436 4843 c-11 -11 -6 -23 9 -23 8 0 15 4 15 9 0 13 -16 22 -24 14z"/>
<path d="M755 4798 c-27 -10 -59 -28 -70 -39 -20 -20 -10 -16 135 48 45 21
-10 13 -65 -9z"/>
<path d="M1280 4816 c0 -2 9 -6 20 -9 11 -3 18 -1 14 4 -5 9 -34 13 -34 5z"/>
<path d="M1360 4785 c14 -8 30 -14 35 -14 6 0 -1 6 -15 14 -14 8 -29 14 -35
14 -5 0 1 -6 15 -14z"/>
<path d="M795 4766 c-88 -28 -115 -43 -115 -62 0 -9 -5 -12 -12 -8 -7 4 -6 -1
3 -12 9 -10 19 -26 22 -34 3 -8 6 1 6 21 1 34 5 38 49 57 83 35 144 53 163 47
11 -4 19 -2 19 4 0 17 -59 11 -135 -13z"/>
<path d="M1150 4784 c0 -5 11 -27 25 -49 20 -33 24 -36 25 -18 0 12 -11 34
-25 49 -14 15 -25 23 -25 18z"/>
<path d="M1190 4782 c0 -4 15 -8 33 -9 50 -2 180 -51 199 -76 15 -19 18 -19
18 -4 0 9 -15 26 -32 37 -64 40 -218 76 -218 52z"/>
<path d="M931 4756 c-14 -14 -21 -29 -17 -33 9 -9 49 32 44 47 -2 6 -13 1 -27
-14z"/>
<path d="M820 4681 c-12 -24 -13 -34 -1 -27 9 6 22 46 15 46 -2 0 -8 -9 -14
-19z"/>
<path d="M1096 4679 c-10 -31 -13 -70 -6 -74 8 -5 23 75 16 83 -3 3 -8 -1 -10
-9z"/>
<path d="M1025 4660 c-3 -5 -1 -10 4 -10 6 0 11 5 11 10 0 6 -2 10 -4 10 -3 0
-8 -4 -11 -10z"/>
<path d="M1021 4588 c-1 -27 4 -48 9 -48 12 0 12 34 0 70 -7 20 -8 16 -9 -22z"/>
<path d="M1181 4581 c-7 -11 -10 -21 -7 -21 31 0 164 -34 207 -54 49 -21 56
-22 52 -8 -5 18 -108 59 -182 72 -23 4 -47 13 -51 20 -6 9 -11 7 -19 -9z"/>
<path d="M910 4581 c-8 -5 -37 -11 -65 -15 -55 -7 -131 -40 -138 -61 -4 -9 19
-4 76 16 45 16 93 29 107 30 14 0 33 4 43 8 16 6 17 9 5 18 -7 7 -20 8 -28 4z"/>
<path d="M3330 4575 c0 -8 4 -15 10 -15 5 0 7 7 4 15 -4 8 -8 15 -10 15 -2 0
-4 -7 -4 -15z"/>
<path d="M1841 4554 c0 -11 3 -14 6 -6 3 7 2 16 -1 19 -3 4 -6 -2 -5 -13z"/>
<path d="M1070 4529 c0 -6 -10 -24 -21 -41 -17 -24 -20 -36 -13 -60 5 -18 16
-34 23 -36 10 -3 12 0 7 13 -3 10 -2 32 3 49 18 60 21 86 11 86 -5 0 -10 -5
-10 -11z"/>
<path d="M953 4475 c0 -22 2 -30 4 -17 2 12 2 30 0 40 -3 9 -5 -1 -4 -23z"/>
<path d="M1154 4484 c-12 -47 2 -157 26 -202 22 -42 22 -45 7 -78 -18 -37 -43
-45 -50 -16 -3 10 -5 6 -6 -10 -1 -28 -19 -39 -25 -15 -25 85 -25 85 -23 32
l2 -50 -39 2 c-22 2 -43 8 -47 14 -4 6 -12 8 -19 4 -7 -4 -25 2 -41 14 -34 26
-35 26 -42 2 -3 -12 -18 -20 -48 -25 -54 -8 -154 -55 -142 -67 4 -4 45 5 91
22 46 16 99 29 118 29 l34 0 -6 -92 c-3 -51 -10 -97 -15 -102 -6 -6 -9 -5 -9
3 0 9 -14 11 -57 5 -32 -4 -64 -7 -70 -7 -7 0 -13 -4 -13 -9 0 -5 -4 -6 -10
-3 -5 3 -20 1 -32 -6 -18 -9 -21 -9 -11 1 6 7 35 21 65 31 54 18 75 39 40 39
-11 0 -39 -7 -62 -15 -24 -8 -45 -13 -48 -10 -3 2 -13 -7 -24 -20 -21 -27 -18
-79 6 -88 13 -5 20 -73 20 -188 l-1 -56 95 28 c52 16 98 26 103 23 5 -3 9 -34
9 -70 0 -50 -3 -64 -15 -64 -15 0 -30 40 -27 73 1 20 -28 22 -92 6 -62 -15
-93 -46 -99 -96 -3 -24 -2 -43 3 -43 4 0 6 -10 6 -22 -1 -13 2 -29 7 -36 6 -7
7 -15 4 -19 -4 -3 -2 -12 4 -20 6 -7 9 -13 5 -13 -3 0 2 -8 11 -18 96 -101
104 -113 97 -145 -19 -82 -9 -158 22 -167 17 -5 19 -15 19 -126 0 -93 -3 -120
-12 -117 -7 3 -13 0 -13 -6 0 -6 -22 -36 -50 -66 -54 -60 -60 -82 -35 -142 20
-48 19 -75 -5 -106 -26 -33 -25 -53 5 -106 30 -52 31 -76 5 -119 -24 -39 -25
-63 -6 -101 16 -30 60 -56 90 -52 16 2 18 -3 14 -38 -2 -23 0 -41 5 -41 5 0 6
-7 3 -16 -4 -12 -2 -15 9 -10 8 3 15 0 15 -6 0 -11 63 -6 105 7 16 6 17 5 5
-4 -12 -8 -6 -10 25 -9 42 1 100 -27 89 -43 -7 -13 -1 -11 49 10 24 10 48 27
52 38 5 10 10 97 13 195 l4 176 34 -20 c50 -30 144 -29 186 2 25 18 32 20 39
9 5 -8 9 -20 9 -27 0 -8 12 -47 26 -88 15 -44 26 -98 26 -130 1 -59 -2 -63
-77 -119 -96 -72 -144 -120 -161 -162 -14 -33 -19 -71 -8 -60 10 10 64 -25 65
-43 3 -34 -3 -58 -25 -110 -13 -30 -29 -67 -34 -82 -9 -22 -23 -30 -84 -48
-186 -52 -204 -61 -213 -102 -4 -18 -18 -49 -31 -70 -13 -20 -27 -55 -30 -77
-5 -29 -11 -41 -23 -41 -20 0 -87 -33 -112 -56 -30 -27 -69 -258 -44 -268 16
-6 -16 -32 -54 -45 -19 -6 -53 -11 -77 -11 -54 0 -74 -19 -74 -70 0 -25 -9
-52 -25 -76 -18 -27 -25 -50 -25 -85 0 -44 2 -48 29 -54 16 -3 45 -7 63 -7 18
-1 46 -9 63 -20 21 -12 50 -18 94 -18 87 0 191 19 198 36 8 21 61 17 85 -6 17
-15 25 -17 42 -8 12 6 24 15 27 20 3 5 22 7 41 3 27 -5 34 -11 34 -28 -1 -14
7 -23 24 -28 36 -10 119 -10 162 0 32 8 41 5 65 -15 16 -13 42 -26 58 -29 48
-8 712 9 722 18 4 5 0 15 -10 22 -16 12 -15 14 14 24 35 12 185 13 319 2 68
-6 79 -9 57 -15 -42 -13 -31 -39 23 -53 25 -6 100 -12 168 -12 99 -1 122 -4
122 -15 0 -17 38 -46 60 -46 10 0 3 11 -18 31 -19 17 -31 33 -28 36 3 3 70 9
148 14 79 5 159 11 178 13 28 4 38 1 48 -14 28 -45 147 -75 230 -58 60 13 81
31 65 57 -13 22 -1 31 41 31 13 0 35 9 49 20 17 13 52 24 103 30 77 10 184 50
184 69 0 20 -62 42 -138 49 l-77 8 91 8 c82 6 95 10 125 37 l34 30 -36 -6
c-19 -3 -39 -2 -43 2 -4 4 -43 6 -87 5 -43 -1 -79 2 -79 6 0 23 63 65 117 78
32 8 61 14 64 14 3 0 22 -24 41 -53 33 -49 39 -53 95 -65 32 -6 69 -12 82 -12
13 0 33 -8 46 -18 22 -18 22 -18 4 -41 -11 -13 -19 -27 -19 -32 0 -18 35 -8
62 17 21 21 25 31 17 45 -13 26 -73 54 -141 69 -32 6 -58 15 -58 19 0 4 44 14
98 22 69 10 89 15 67 19 -30 5 -30 6 -33 75 -1 39 2 82 7 98 6 15 6 27 2 27
-5 0 -17 17 -26 38 -29 59 -103 115 -146 107 -13 -2 -53 -9 -89 -15 -36 -5
-83 -13 -105 -18 -64 -13 -75 -7 -76 41 -2 30 -3 34 -6 15 -2 -16 -7 -28 -11
-28 -4 0 -20 21 -37 46 l-30 45 -60 -7 c-33 -4 -73 -7 -88 -7 -18 0 -39 -10
-58 -29 -26 -27 -35 -25 -30 6 1 5 -4 13 -11 18 -8 5 -2 6 15 2 17 -4 27 -2
27 5 0 6 6 11 14 11 8 0 18 5 22 11 5 9 -2 10 -22 6 -16 -3 -23 -4 -16 -1 6 3
12 9 12 14 0 8 -67 25 -87 21 -12 -2 -18 12 -14 32 1 5 -3 6 -9 2 -6 -3 -27
12 -48 34 -66 72 -64 68 -40 91 12 11 25 20 30 20 4 0 4 7 1 17 -4 10 -2 14 5
9 7 -4 10 4 7 26 -2 18 -7 61 -9 96 -3 34 -15 81 -26 104 -11 23 -20 50 -20
60 0 10 -4 18 -10 18 -5 0 -10 6 -10 13 -1 32 -40 61 -92 66 -5 1 -8 33 -8 73
0 68 8 90 12 35 2 -20 8 -27 23 -27 12 0 66 -22 122 -49 55 -28 125 -58 154
-67 56 -18 66 -26 110 -84 38 -49 79 -96 79 -89 0 3 -13 23 -29 43 -27 34 -32
66 -10 66 4 0 -6 30 -23 66 -30 63 -30 69 -26 176 5 108 5 111 35 137 56 49
104 191 68 205 -8 3 -30 -13 -49 -34 -43 -47 -126 -213 -126 -250 0 -15 -3
-30 -6 -33 -9 -9 -11 -87 -2 -119 9 -37 0 -36 -111 12 -50 22 -98 40 -106 40
-20 0 -45 64 -45 114 0 44 29 130 62 184 l20 32 98 0 c85 0 99 2 104 18 3 9
22 34 42 55 33 34 34 38 19 54 -15 15 -20 13 -57 -25 l-40 -42 -105 0 c-128 0
-144 -8 -274 -128 -33 -31 -62 -50 -70 -47 -25 10 -82 95 -99 148 -10 29 -21
75 -25 103 -7 56 10 168 29 183 28 22 127 36 249 34 l128 -2 27 50 c22 40 31
49 49 46 12 -2 20 0 17 5 -3 5 0 15 6 23 6 8 8 20 4 27 -4 6 -7 102 -7 212 1
241 -19 394 -52 406 -41 16 -94 98 -129 197 -11 32 -11 43 2 70 14 30 14 42
-2 130 -51 271 -163 481 -312 584 -150 103 -359 146 -586 120 -265 -30 -425
-102 -573 -260 -25 -26 -72 -115 -106 -201 -18 -47 -22 -82 -26 -230 -3 -96 0
-210 5 -252 8 -58 7 -97 -4 -160 -16 -90 -51 -217 -65 -233 -5 -5 -9 -17 -9
-27 0 -10 -4 -18 -8 -18 -5 0 -7 21 -6 46 l3 46 -39 -6 c-31 -5 -40 -3 -40 8
0 7 -8 17 -17 20 -10 3 -28 12 -41 20 -21 12 -22 15 -7 30 9 9 25 21 36 26 13
8 19 22 19 48 0 20 7 46 15 56 21 27 20 171 0 210 -8 16 -18 69 -21 118 -5 83
-4 92 16 114 21 21 22 30 18 114 -3 50 -8 93 -11 96 -15 15 -25 -13 -32 -88
-4 -46 -9 -86 -11 -89 -2 -4 -34 8 -71 27 -81 40 -173 56 -173 30 0 -9 -4 -16
-9 -16 -10 0 -26 195 -17 209 6 9 142 -22 208 -48 21 -8 29 -7 40 6 9 12 9 14
1 10 -7 -5 -45 6 -85 22 -40 16 -82 31 -93 33 -22 4 -33 45 -35 133 -1 28 -4
44 -7 38 -11 -28 -21 -10 -28 50 -4 34 -7 77 -6 95 1 39 -6 42 -15 6z m1561
-59 c55 -14 123 -39 151 -56 62 -35 166 -144 212 -221 39 -66 96 -228 122
-348 17 -81 18 -86 1 -115 -44 -77 -219 -183 -386 -233 -152 -46 -374 -70
-500 -53 -44 6 -100 13 -125 16 -104 13 -174 27 -210 41 -36 14 -40 20 -46 62
-9 64 -19 80 -61 97 -50 21 -93 20 -93 -2 0 -22 17 -130 31 -201 10 -49 13
-54 61 -78 27 -14 55 -23 61 -21 7 2 -13 16 -44 29 l-55 25 -17 114 c-21 137
-21 140 -3 133 9 -4 18 -38 27 -105 7 -55 17 -103 23 -108 6 -5 40 -18 76 -29
68 -20 80 -33 100 -102 7 -23 4 -34 -13 -52 -58 -63 -79 -99 -73 -124 30 -120
279 -333 418 -359 42 -8 98 17 169 76 26 22 52 39 58 39 7 0 10 4 7 9 -13 20
170 164 249 197 58 24 103 17 205 -31 52 -25 103 -45 112 -45 41 0 78 125 78
267 0 77 -2 84 -25 99 -22 14 -25 21 -19 53 12 67 30 68 96 2 49 -50 60 -67
68 -112 12 -64 12 -72 1 -64 -5 3 -12 1 -16 -5 -9 -15 -25 -2 -25 22 0 18 2
19 18 7 15 -13 16 -12 3 4 -7 9 -17 17 -21 17 -17 0 -20 -34 -5 -56 16 -26 44
-32 46 -11 3 28 17 -52 18 -102 1 -43 -22 -150 -36 -170 -1 -2 -14 8 -27 22
-27 29 -67 35 -85 14 -21 -26 -24 -75 -7 -102 9 -14 14 -30 11 -35 -3 -6 1
-10 10 -10 19 0 85 27 85 35 0 3 -9 1 -19 -5 -28 -14 -35 -13 -65 15 -29 27
-34 60 -10 69 36 14 71 -38 47 -70 -5 -5 0 -1 10 9 21 24 22 41 1 61 -8 9 -12
16 -8 16 5 0 18 -12 30 -27 l23 -28 16 35 16 35 -6 -70 c-7 -78 -34 -195 -44
-195 -4 0 -25 9 -47 19 -64 31 -161 61 -198 61 -24 0 -35 5 -38 17 -3 15 -5
15 -22 -2 -18 -18 -18 -19 0 -26 11 -4 33 -8 51 -8 36 -1 115 -24 155 -46 14
-8 33 -15 42 -15 9 0 16 -5 16 -11 0 -9 -17 -9 -62 -3 -35 5 -99 8 -143 7 -99
-1 -170 -29 -335 -128 -138 -84 -198 -114 -225 -115 -16 0 -13 5 13 21 51 33
31 33 -39 -1 -96 -45 -137 -42 -268 21 -58 28 -108 54 -111 58 -3 4 -26 19
-52 34 -76 44 -204 144 -283 221 -57 56 -82 91 -119 164 -56 111 -61 165 -7
83 53 -83 137 -190 191 -245 69 -70 77 -77 114 -87 18 -5 46 -20 62 -34 31
-27 136 -81 222 -114 142 -56 296 1 489 180 34 31 92 78 130 105 37 26 70 49
72 51 2 2 2 5 -1 8 -8 8 -119 -69 -232 -163 -60 -49 -132 -104 -160 -120 -63
-39 -166 -66 -223 -59 -44 5 -195 77 -272 130 -167 115 -444 469 -393 501 6 3
16 -10 22 -29 13 -41 56 -95 74 -95 7 0 21 18 31 41 15 32 16 44 7 57 -6 10
-28 45 -48 80 -20 35 -38 61 -41 58 -7 -6 44 -116 63 -137 14 -16 14 -20 -1
-43 -10 -14 -19 -26 -21 -26 -2 0 -21 26 -41 57 -36 57 -36 57 -23 107 8 35
13 147 14 356 2 302 2 306 29 393 38 122 49 141 136 228 147 147 347 213 626
205 100 -3 153 -10 230 -31z m-1573 -327 c10 -13 18 -26 18 -29 0 -4 -35 -10
-77 -14 -43 -3 -88 -9 -100 -12 -32 -7 -31 31 1 60 20 19 34 22 82 20 47 -2
62 -7 76 -25z m-12 -67 c20 -6 25 -13 25 -40 0 -32 -2 -33 -40 -36 -22 -1 -66
-5 -98 -10 l-58 -7 3 43 c3 40 6 45 33 50 40 9 104 9 135 0z m-220 -205 c0
-81 -3 -106 -15 -116 -10 -8 -19 -10 -25 -4 -14 14 -14 147 -1 172 10 19 9 21
-5 15 -13 -5 -15 -3 -9 7 5 8 4 11 -3 7 -5 -4 -8 -15 -5 -25 3 -13 -2 -18 -17
-18 -13 0 -19 5 -16 13 3 7 -2 13 -11 13 -26 0 -5 14 40 27 70 19 67 23 67
-91z m440 74 c35 -11 67 -25 71 -31 7 -13 3 -218 -5 -226 -5 -5 -29 3 -101 33
-16 6 -42 15 -56 18 -35 8 -40 23 -47 140 l-5 99 40 -6 c21 -4 68 -16 103 -27z
m-263 -26 c8 -21 -13 -34 -54 -34 -22 0 -33 5 -33 15 0 31 75 48 87 19z m100
-41 c-3 -10 -5 -2 -5 17 0 19 2 27 5 18 2 -10 2 -26 0 -35z m-99 -100 c-2 -13
-15 -19 -46 -21 -23 -2 -42 1 -42 5 0 19 25 33 58 33 26 0 33 -4 30 -17z m140
-63 c9 -5 49 -16 87 -25 39 -9 87 -24 108 -33 l39 -17 -6 -69 c-4 -39 -8 -72
-10 -74 -2 -2 -23 6 -47 18 -23 12 -64 29 -92 37 -27 8 -47 17 -44 19 5 5 74
-10 142 -30 11 -4 -11 9 -50 28 -82 40 -135 52 -135 32 0 -8 6 -17 13 -20 6
-2 1 -3 -13 -2 -23 3 -25 7 -28 61 -3 56 1 85 13 85 3 0 13 -4 23 -10z m-89
-36 c32 -7 39 -32 7 -26 -12 2 -16 -5 -16 -33 l0 -36 -72 3 c-65 3 -73 5 -73
23 0 11 -8 23 -18 27 -65 27 76 61 172 42z m2080 -114 c1 -26 -16 10 -23 50
l-6 35 14 -35 c8 -19 15 -42 15 -50z m-2319 -64 c0 -15 -7 -26 -20 -29 -16 -4
-20 0 -20 18 0 14 7 25 18 28 9 3 18 5 20 6 1 0 2 -10 2 -23z m415 8 c17 -3
49 -10 73 -16 37 -9 42 -14 42 -40 0 -16 -5 -38 -11 -50 l-11 -20 -14 21 c-9
12 -20 21 -26 21 -10 0 -66 23 -100 41 -10 5 -25 9 -33 9 -21 0 -19 20 3 21
16 1 16 2 -1 6 -9 2 -14 9 -11 15 4 5 18 7 33 3 14 -3 40 -8 56 -11z m-108
-70 c-3 -3 -12 -4 -19 -1 -8 3 -5 6 6 6 11 1 17 -2 13 -5z m1663 -39 c7 -9 15
-14 17 -11 2 2 34 -11 69 -30 79 -41 147 -46 182 -14 12 11 23 20 26 20 2 0
14 -15 25 -33 19 -31 19 -37 7 -91 -8 -31 -24 -68 -37 -82 -15 -16 -18 -24 -9
-24 11 0 11 -3 3 -11 -9 -9 -29 -5 -80 16 -37 16 -73 33 -79 37 -7 5 -34 11
-61 15 -40 4 -58 1 -99 -20 -52 -26 -223 -152 -288 -212 -21 -19 -50 -38 -65
-41 -14 -4 -30 -10 -36 -13 -30 -20 -127 -6 -185 27 -24 13 -23 13 17 8 34 -5
41 -3 37 8 -3 8 -22 17 -42 21 -53 10 -122 48 -177 98 l-49 44 22 34 c12 20
30 43 41 53 19 17 22 17 83 -3 35 -11 79 -23 99 -26 73 -13 167 27 351 151 62
42 122 80 133 84 33 14 82 11 95 -5z m-1662 -17 c7 -7 12 -33 12 -59 0 -44 -1
-46 -25 -41 -34 6 -37 14 -29 67 6 45 20 55 42 33z m-3 -127 c28 -6 30 -10 33
-54 3 -49 3 -49 -25 -43 -62 14 -161 22 -186 15 -32 -9 -37 -4 -37 34 l0 29
-77 -7 c-43 -4 -74 -3 -70 1 24 24 281 42 362 25z m81 -147 c19 -15 34 -31 34
-38 0 -22 -35 -96 -46 -96 -16 0 -75 42 -87 61 -8 13 -3 26 22 58 18 22 35 41
38 41 2 0 20 -12 39 -26z m-173 -30 c12 -4 13 -11 4 -35 -6 -16 -14 -29 -17
-29 -7 0 -50 56 -50 65 0 7 44 7 63 -1z m315 -50 c14 -3 22 -12 22 -24 0 -11
-4 -20 -8 -20 -4 0 -6 -16 -4 -35 4 -34 4 -35 -32 -35 -49 0 -96 25 -96 51 0
11 6 33 14 48 15 28 29 31 104 15z m155 3 c33 -12 47 -41 40 -80 -5 -26 -7
-26 -77 -24 l-71 2 -3 45 c-5 65 34 85 111 57z m-457 -116 c-4 -5 0 -12 6 -15
7 -3 -33 -3 -90 0 -74 4 -107 2 -118 -7 -12 -10 -13 -9 -8 4 7 20 28 24 132
26 48 0 81 -3 78 -8z m494 -28 c25 -5 30 -10 30 -35 0 -44 -26 -88 -53 -88
-12 0 -52 12 -89 26 -72 27 -78 36 -58 90 10 26 12 27 76 20 35 -4 78 -9 94
-13z m-438 -28 c-2 -11 -14 -31 -27 -45 -23 -25 -23 -28 -26 -325 l-4 -300 38
-18 c35 -17 37 -22 37 -63 0 -43 -1 -45 -22 -38 -13 4 -36 8 -53 9 -38 2 -77
18 -93 38 -18 21 -23 119 -22 376 l0 224 -24 26 c-32 33 -86 114 -81 120 3 2
31 -25 64 -60 l59 -64 27 25 c15 14 43 47 62 73 36 49 71 61 65 22z m106 -57
c3 -35 1 -38 -22 -38 -24 0 -26 4 -26 41 0 36 2 40 23 37 18 -2 23 -10 25 -40z
m58 3 c-1 -3 -6 -15 -11 -26 -7 -20 -7 -20 -15 0 -4 11 -5 28 -2 38 3 13 8 15
18 6 8 -6 12 -14 10 -18z m316 -122 c-4 -118 -5 -127 -25 -137 -22 -9 -22 -8
-19 82 3 63 9 96 19 108 8 9 12 21 9 27 -6 9 12 58 18 49 1 -1 0 -60 -2 -129z
m50 102 c-1 -7 -3 -23 -4 -36 -4 -41 -18 -28 -18 16 0 28 4 39 13 36 6 -2 11
-10 9 -16z m47 -69 c-27 -5 -29 -1 -22 27 l6 24 18 -24 c18 -23 18 -24 -2 -27z
m181 -88 c0 0 -8 -16 -17 -35 -19 -37 -43 -124 -50 -181 -6 -45 -23 -49 -52
-12 -20 26 -21 26 -73 13 -29 -7 -59 -17 -66 -22 -9 -7 -21 -2 -42 18 -17 16
-30 33 -30 37 0 5 29 22 63 37 61 27 65 32 87 87 14 32 39 75 58 96 l34 37 44
-36 c24 -21 44 -38 44 -39z m-154 54 c3 -5 -1 -17 -10 -27 -8 -9 -26 -40 -38
-69 -20 -45 -32 -57 -88 -90 -52 -31 -65 -43 -63 -60 2 -16 -5 -25 -23 -32
-36 -14 -44 -13 -44 9 0 43 21 80 50 86 16 3 49 20 74 37 l46 30 0 64 0 64 45
-2 c25 -1 48 -5 51 -10z m214 -83 c10 -13 6 -23 -29 -60 -56 -61 -52 -68 8
-11 36 33 55 44 68 39 31 -11 43 -25 43 -49 0 -13 9 -48 21 -78 23 -63 20 -61
185 -90 116 -20 119 -20 157 7 41 29 63 42 112 68 22 12 83 50 135 84 52 33
106 66 120 72 l25 10 -3 -111 c-4 -126 13 -211 55 -284 19 -32 31 -42 44 -39
25 7 99 -20 126 -45 18 -16 20 -24 11 -35 -16 -20 -93 -70 -120 -78 -12 -4
-25 -11 -28 -14 -3 -4 -31 -17 -63 -29 l-59 -22 -81 21 c-45 11 -111 32 -147
46 -102 39 -111 41 -190 59 -80 18 -243 24 -298 10 -29 -7 -36 -4 -64 26 -17
18 -52 76 -77 128 -40 83 -46 103 -45 157 0 34 6 69 13 77 7 8 10 20 6 26 -5
9 18 97 32 123 7 12 30 8 43 -8z m-733 -61 c-3 -3 -12 -4 -19 -1 -8 3 -5 6 6
6 11 1 17 -2 13 -5z m46 -11 c-7 -2 -19 -2 -25 0 -7 3 -2 5 12 5 14 0 19 -2
13 -5z m1000 -93 c32 -13 73 -20 118 -21 57 -1 68 -4 59 -15 -8 -9 -19 -10
-35 -4 -15 6 -29 4 -43 -6 -30 -21 -205 4 -233 35 -11 11 -26 21 -33 21 -8 0
-17 12 -20 28 -4 15 -9 35 -12 45 -5 14 10 10 73 -22 43 -22 100 -49 126 -61z
m-686 -82 c23 -21 24 -22 71 -5 26 9 54 17 62 17 34 0 158 -250 167 -334 5
-52 5 -53 -28 -68 -19 -9 -52 -21 -74 -28 -22 -7 -101 -42 -175 -78 -74 -37
-138 -68 -143 -70 -4 -2 -3 7 2 20 4 12 16 66 26 118 10 53 24 100 33 107 17
14 31 78 32 144 0 33 -9 63 -30 102 -33 62 -37 83 -17 90 26 11 52 6 74 -15z
m574 -375 c1 -94 17 -111 18 -19 l1 79 61 -7 c33 -4 66 -9 72 -12 7 -3 13 -30
14 -67 1 -34 5 -72 7 -83 5 -18 0 -23 -24 -27 -35 -7 -48 -42 -49 -134 -1 -24
-5 -43 -11 -43 -6 0 -10 38 -10 93 l0 92 -32 11 c-71 25 -104 40 -121 56 -20
17 -41 93 -32 109 4 5 28 9 56 9 l49 0 1 -57z m259 23 c30 -8 70 -21 88 -31
31 -16 32 -19 32 -76 0 -33 4 -59 10 -59 6 0 10 25 10 55 0 30 1 55 3 55 1 0
30 -10 62 -22 40 -14 84 -21 133 -22 67 0 73 -2 70 -21 -2 -16 -17 -23 -78
-37 -41 -9 -103 -17 -136 -17 l-61 -1 -12 -57 c-6 -31 -11 -78 -11 -105 0 -48
0 -48 -33 -48 l-33 0 8 83 c11 117 -1 134 -89 128 -29 -3 -32 4 -37 103 -6 97
-10 93 74 72z m637 -41 c-15 -14 -27 -33 -27 -42 0 -11 12 -3 35 23 l34 39 1
-101 c0 -97 -1 -101 -28 -127 -35 -33 -42 -34 -42 -3 0 33 -17 43 -23 14 -2
-13 -4 16 -5 64 -1 82 1 88 30 122 17 20 36 36 42 36 6 0 -2 -11 -17 -25z
m-1004 -31 c21 -35 25 -49 17 -59 -6 -8 -13 -31 -16 -52 -6 -44 -16 -58 -38
-50 -19 8 -18 127 1 127 17 0 16 10 -2 34 -8 11 -15 26 -15 33 0 27 26 11 53
-33z m930 34 c-6 -7 -13 -61 -16 -120 -5 -97 -4 -109 14 -132 13 -17 16 -26 8
-26 -7 0 -21 -7 -31 -17 -10 -9 -20 -14 -22 -12 -2 2 0 42 3 89 4 47 6 92 3
101 -4 18 -57 40 -78 32 -8 -3 -14 1 -14 9 0 8 30 30 68 50 81 42 77 41 65 26z
m-828 -107 c3 -5 19 -13 36 -16 l31 -7 -7 -81 c-7 -86 -10 -97 -26 -97 -5 0
-9 25 -9 56 0 34 -4 53 -10 49 -5 -3 -10 -27 -10 -52 0 -43 -1 -45 -17 -31
-10 8 -26 18 -36 21 -15 6 -18 17 -16 67 1 33 4 60 6 60 2 0 15 -7 28 -16 13
-9 32 -14 42 -12 13 2 9 9 -20 25 -20 12 -37 27 -37 33 0 12 37 13 45 1z m740
-11 c7 -12 -31 -28 -103 -42 -36 -8 -49 -14 -40 -19 13 -7 99 8 141 26 17 7
18 2 12 -71 -3 -44 -9 -82 -13 -86 -8 -8 -242 -58 -270 -58 -12 0 -14 10 -9
51 7 59 -1 118 -14 97 -5 -7 -9 -31 -9 -53 0 -51 -9 -85 -23 -85 -8 0 -5 113
5 162 5 20 42 36 115 47 37 6 88 17 113 25 55 17 87 19 95 6z m-943 -78 c-14
-196 124 -393 291 -417 26 -4 49 -11 52 -15 7 -11 -152 -83 -166 -74 -7 4 -9
3 -6 -3 9 -15 -156 -93 -198 -93 -59 0 -126 41 -162 98 -30 48 -74 87 -142
124 -41 23 -41 56 2 95 34 31 270 289 300 329 10 13 22 24 26 24 5 0 6 -31 3
-68z m-517 39 c-3 -6 -11 -8 -17 -5 -6 4 -5 9 3 15 16 10 23 4 14 -10z m976
-1 l39 0 -1 -42 c-1 -24 -5 -70 -9 -103 l-7 -60 -2 73 c-1 89 -21 90 -21 1 0
-69 -10 -78 -71 -60 l-39 12 0 81 c0 63 3 78 13 71 19 -16 80 -24 97 -13 18
11 6 16 -58 23 -24 3 -47 8 -50 12 -13 12 22 23 45 14 14 -5 42 -9 64 -9z m69
-244 c0 -61 -6 -66 -75 -66 -71 0 -100 16 -111 64 -6 26 -5 28 12 21 37 -16
98 -17 119 -1 35 27 55 20 55 -18z m250 -16 c0 -39 -22 -49 -115 -55 l-75 -4
0 32 c0 32 1 32 53 35 29 1 66 7 83 11 48 15 54 13 54 -19z m-431 -56 c19 -13
48 -25 65 -26 36 -2 116 -5 198 -7 l57 -1 -23 -34 c-12 -19 -28 -47 -35 -64
-11 -25 -19 -31 -61 -36 -56 -8 -132 7 -175 34 -43 27 -109 116 -134 182 l-10
26 42 -25 c23 -13 57 -35 76 -49z m631 -81 c68 -52 118 -53 216 -3 65 33 58
36 115 -54 24 -38 27 -47 12 -41 -87 35 -179 1 -284 -105 -38 -38 -69 -74 -69
-79 0 -5 -12 -28 -27 -50 l-26 -41 -56 52 c-95 88 -181 179 -181 191 0 34 106
160 180 213 l45 33 25 -49 c14 -27 36 -57 50 -67z m-1528 59 c43 -39 70 -101
70 -155 -1 -66 27 -199 52 -252 24 -50 56 -161 56 -194 0 -10 -8 -26 -19 -35
-17 -16 -19 -16 -25 6 -3 13 -6 31 -6 41 0 10 -20 61 -45 114 -25 52 -45 98
-45 102 0 5 -12 20 -26 35 -21 20 -23 26 -10 26 9 0 16 5 16 10 0 6 -9 10 -20
10 -24 0 -26 13 -5 30 18 15 10 31 -11 23 -14 -5 -14 12 1 63 1 5 -8 50 -21
100 -37 138 -35 143 38 76z m149 -90 c-18 -33 -13 -65 17 -113 56 -88 124
-125 218 -117 30 3 54 1 54 -4 0 -5 -9 -29 -20 -53 -18 -40 -24 -44 -66 -51
-25 -3 -78 -3 -117 2 l-72 9 -22 62 c-12 34 -28 101 -34 148 l-12 86 28 29
c31 33 43 33 26 2z m1874 -112 c-3 -5 -14 -10 -23 -10 -15 0 -15 2 -2 10 20
13 33 13 25 0z m-87 -61 c19 -82 15 -118 -20 -176 l-32 -53 -92 0 c-131 0
-146 5 -194 61 l-40 48 53 39 c29 22 73 50 97 62 64 33 192 79 206 73 6 -2 16
-27 22 -54z m46 -21 c21 -102 54 -226 78 -291 l28 -79 -29 7 c-30 6 -84 -11
-117 -38 -20 -17 -124 -96 -176 -134 -24 -18 -34 -20 -44 -12 -8 6 -11 15 -8
20 3 5 0 9 -5 9 -6 0 -11 5 -11 11 0 35 -121 247 -155 271 -10 8 -11 7 27 31
22 13 28 14 37 3 18 -21 122 -39 206 -34 74 3 79 5 105 37 37 44 54 108 46
171 -4 32 -3 50 3 50 6 0 13 -10 15 -22z m-1369 -110 c9 -39 81 -296 90 -319
5 -13 -11 -20 -89 -38 -120 -29 -144 -24 -217 44 -61 56 -113 85 -152 85 -14
0 -29 5 -32 10 -10 16 -44 144 -40 149 3 2 12 -2 21 -10 47 -39 235 3 348 76
28 19 54 34 58 34 3 1 10 -14 13 -31z m-339 -257 c17 -10 57 -44 89 -75 32
-31 63 -56 68 -56 25 0 -8 -13 -89 -34 -49 -13 -105 -22 -124 -20 -77 9 -171
28 -175 35 -10 16 155 169 182 169 10 0 32 -9 49 -19z m1899 -87 c30 -33 54
-64 55 -70 0 -16 -42 -22 -200 -29 -74 -4 -154 -8 -177 -9 -23 -2 -45 -1 -47
1 -7 7 50 64 124 123 l65 52 63 -5 c62 -5 64 -6 117 -63z m-2837 -131 c-16 -2
-40 -2 -55 0 -16 2 -3 4 27 4 30 0 43 -2 28 -4z m146 -18 c-4 -9 -19 -15 -35
-15 -51 0 -31 25 23 29 12 1 15 -4 12 -14z m2639 -106 c30 -13 27 -29 -5 -29
-22 0 -108 38 -108 47 0 9 84 -5 113 -18z"/>
<path d="M1955 4299 c-4 -5 0 -9 7 -9 7 -1 24 -10 37 -20 26 -22 27 -20 -34
-88 -44 -50 -59 -55 -89 -31 -29 23 -26 39 19 80 14 13 30 32 36 42 9 16 8 17
-9 8 -26 -14 -82 -85 -82 -104 0 -17 55 -67 73 -66 22 1 119 127 113 146 -7
22 -63 55 -71 42z"/>
<path d="M2770 4224 c0 -6 7 -19 15 -30 8 -10 14 -14 14 -9 0 6 -6 19 -14 29
-8 11 -15 15 -15 10z"/>
<path d="M2560 4203 c0 -7 11 -25 25 -40 13 -15 25 -23 25 -16 0 7 -11 25 -25
40 -13 15 -25 23 -25 16z"/>
<path d="M2931 4168 c-1 -20 4 -40 9 -43 12 -7 12 32 0 60 -7 16 -9 13 -9 -17z"/>
<path d="M2415 4130 c9 -16 20 -30 26 -30 5 0 3 14 -6 30 -9 17 -20 30 -26 30
-5 0 -3 -13 6 -30z"/>
<path d="M3020 4100 c0 -5 5 -10 10 -10 6 0 10 5 10 10 0 6 -4 10 -10 10 -5 0
-10 -4 -10 -10z"/>
<path d="M2329 4083 c12 -24 31 -39 31 -25 0 5 -10 17 -21 28 -22 19 -22 19
-10 -3z"/>
<path d="M1800 3920 c34 -11 60 -11 35 0 -11 5 -29 8 -40 8 -16 0 -15 -2 5 -8z"/>
<path d="M1713 3830 c0 -30 2 -43 4 -27 2 15 2 39 0 55 -2 15 -4 2 -4 -28z"/>
<path d="M1857 3863 c-4 -3 -7 -25 -7 -47 0 -60 -10 -70 -61 -63 l-44 7 34
-15 c47 -21 70 -19 75 8 5 19 13 117 10 117 0 0 -4 -3 -7 -7z"/>
<path d="M3065 3800 c-10 -11 -13 -20 -7 -20 6 0 16 9 22 20 6 11 9 20 7 20
-2 0 -12 -9 -22 -20z"/>
<path d="M2067 3744 c9 -24 63 -46 63 -26 0 5 -16 16 -35 25 -29 14 -33 14
-28 1z"/>
<path d="M3150 3734 c0 -12 -92 -83 -160 -123 -30 -18 -46 -30 -35 -27 61 20
217 137 203 152 -5 4 -8 3 -8 -2z"/>
<path d="M1822 3696 c9 -11 119 -38 125 -32 3 3 -6 10 -21 16 -35 13 -113 25
-104 16z"/>
<path d="M1970 3588 c0 -26 5 -50 10 -53 13 -8 13 65 0 85 -7 11 -10 2 -10
-32z"/>
<path d="M2037 3499 c29 -27 314 -38 488 -19 43 5 14 6 -77 2 -88 -3 -177 0
-220 6 -91 14 -201 21 -191 11z"/>
<path d="M2678 3503 c6 -2 18 -2 25 0 6 3 1 5 -13 5 -14 0 -19 -2 -12 -5z"/>
<path d="M2613 3493 c9 -2 23 -2 30 0 6 3 -1 5 -18 5 -16 0 -22 -2 -12 -5z"/>
<path d="M3221 3399 c0 -16 9 -34 24 -49 14 -13 25 -18 25 -12 0 6 -9 16 -19
22 -11 5 -22 22 -24 37 l-4 28 -2 -26z"/>
<path d="M1970 3290 c0 -5 5 -10 10 -10 6 0 10 5 10 10 0 6 -4 10 -10 10 -5 0
-10 -4 -10 -10z"/>
<path d="M3282 3270 c0 -19 2 -27 5 -17 2 9 2 25 0 35 -3 9 -5 1 -5 -18z"/>
<path d="M1970 3210 c-10 -19 -10 -20 9 -8 22 13 28 28 11 28 -5 0 -14 -9 -20
-20z"/>
<path d="M1922 3164 c-25 -17 -27 -39 -7 -74 14 -25 14 -25 15 16 0 22 5 45
12 52 19 19 4 23 -20 6z"/>
<path d="M3345 3151 c7 -10 6 -16 -3 -18 -16 -6 -6 -23 14 -23 19 0 18 14 -3
37 -10 10 -13 12 -8 4z"/>
<path d="M3346 3058 c5 -8 0 -9 -14 -6 -12 4 -22 3 -22 0 1 -12 49 -42 53 -35
6 9 -10 53 -18 53 -4 0 -3 -5 1 -12z"/>
<path d="M1864 3039 c-45 -13 -60 -33 -46 -64 14 -30 30 -31 75 -5 26 15 34
26 30 40 -8 30 -25 38 -59 29z m24 -31 c-5 -15 -58 -30 -58 -17 0 5 10 14 23
19 31 12 39 12 35 -2z"/>
<path d="M1920 2954 c-48 -19 -63 -45 -44 -73 19 -27 36 -27 79 2 39 24 44 46
18 69 -16 14 -22 14 -53 2z m38 -25 c-2 -6 -18 -17 -36 -25 -27 -11 -32 -11
-32 1 0 7 12 18 28 23 36 14 44 14 40 1z"/>
<path d="M2010 2871 c-43 -17 -62 -40 -56 -65 10 -41 48 -44 86 -7 19 18 30
36 27 45 -8 20 -39 35 -57 27z m20 -36 c0 -8 -3 -15 -7 -15 -5 0 -18 -3 -30
-6 -13 -4 -23 -2 -23 3 0 9 35 31 53 32 4 1 7 -6 7 -14z"/>
<path d="M2971 2786 c-7 -8 -24 -17 -38 -21 -15 -3 -39 -15 -54 -26 -15 -10
-29 -19 -32 -19 -3 0 -36 -21 -74 -46 -61 -41 -163 -134 -148 -134 4 0 47 32
97 70 50 39 96 70 103 70 7 0 18 7 26 16 15 18 82 54 112 60 20 3 37 20 37 37
0 12 -17 8 -29 -7z"/>
<path d="M1300 3776 c0 -15 18 -31 26 -23 7 7 -7 37 -17 37 -5 0 -9 -6 -9 -14z"/>
<path d="M3100 3119 c0 -5 5 -7 10 -4 6 3 10 8 10 11 0 2 -4 4 -10 4 -5 0 -10
-5 -10 -11z"/>
<path d="M2135 3100 c5 -14 2 -20 -9 -20 -9 0 -16 -4 -16 -9 0 -15 23 -26 28
-13 2 6 10 8 18 5 18 -6 19 28 2 45 -18 18 -30 14 -23 -8z"/>
<path d="M2425 2911 c-7 -12 12 -24 25 -16 11 7 4 25 -10 25 -5 0 -11 -4 -15
-9z"/>
<path d="M2355 2900 c-8 -13 20 -24 40 -16 8 3 15 10 15 16 0 13 -47 13 -55 0z"/>
<path d="M1250 3025 c7 -8 17 -15 22 -15 6 0 5 7 -2 15 -7 8 -17 15 -22 15 -6
0 -5 -7 2 -15z"/>
<path d="M1035 2170 c-3 -5 -1 -10 4 -10 6 0 11 5 11 10 0 6 -2 10 -4 10 -3 0
-8 -4 -11 -10z"/>
<path d="M1710 2583 l0 -38 14 27 c8 16 18 32 21 38 3 5 -3 10 -14 10 -18 0
-21 -6 -21 -37z"/>
<path d="M1552 2400 c0 -14 2 -19 5 -12 2 6 2 18 0 25 -3 6 -5 1 -5 -13z"/>
<path d="M2717 2428 c-9 -24 5 -65 53 -157 25 -48 55 -90 76 -106 51 -39 53
-23 4 32 -41 46 -100 149 -100 175 -1 7 -7 26 -14 43 -10 23 -13 26 -19 13z"/>
<path d="M1966 2343 c-8 -9 -7 -56 2 -69 10 -16 99 -53 144 -61 39 -6 40 -5
36 23 -3 31 -24 45 -119 88 -31 14 -60 22 -63 19z"/>
<path d="M1692 2011 c-24 -49 -28 -71 -12 -71 11 0 50 72 50 94 0 31 -16 22
-38 -23z"/>
<path d="M1750 1991 c-15 -29 -12 -41 9 -41 21 0 33 22 25 45 -8 21 -21 19
-34 -4z"/>
<path d="M2745 1730 c-3 -5 -1 -10 4 -10 6 0 11 5 11 10 0 6 -2 10 -4 10 -3 0
-8 -4 -11 -10z"/>
<path d="M2690 1720 c0 -5 5 -10 10 -10 6 0 10 5 10 10 0 6 -4 10 -10 10 -5 0
-10 -4 -10 -10z"/>
<path d="M2846 1684 c-19 -18 -20 -28 -6 -55 12 -21 50 -25 68 -7 18 18 14 56
-7 68 -27 14 -37 13 -55 -6z m55 -37 c-10 -9 -11 -8 -5 6 3 10 9 15 12 12 3
-3 0 -11 -7 -18z"/>
<path d="M1926 1334 c-3 -9 -6 -30 -6 -47 1 -30 1 -31 15 -13 17 22 20 62 6
70 -5 3 -12 -1 -15 -10z"/>
<path d="M1875 1260 c-7 -31 -1 -50 16 -50 5 0 9 18 9 40 0 47 -16 53 -25 10z"/>
<path d="M2947 1246 c-4 -10 -5 -21 -2 -24 9 -9 17 6 13 25 -3 17 -4 17 -11
-1z"/>
<path d="M3296 1093 c-6 -14 -5 -15 5 -6 7 7 10 15 7 18 -3 3 -9 -2 -12 -12z"/>
<path d="M3340 840 c-14 -10 -22 -22 -18 -25 9 -9 26 2 38 26 13 23 11 23 -20
-1z"/>
<path d="M1892 830 c-25 -33 -28 -50 -9 -50 12 0 47 53 47 71 0 18 -16 9 -38
-21z"/>
<path d="M1932 768 c-17 -17 -15 -28 6 -28 24 0 32 8 25 26 -6 17 -15 18 -31
2z"/>
<path d="M3515 690 c-3 -5 -2 -10 4 -10 5 0 13 5 16 10 3 6 2 10 -4 10 -5 0
-13 -4 -16 -10z"/>
<path d="M3555 670 c-3 -5 1 -10 9 -10 9 0 16 5 16 10 0 6 -4 10 -9 10 -6 0
-13 -4 -16 -10z"/>
<path d="M1799 4483 l-24 -28 28 24 c25 23 32 31 24 31 -2 0 -14 -12 -28 -27z"/>
<path d="M770 4403 c-36 -14 -75 -26 -87 -27 -19 -1 -23 -7 -23 -36 0 -20 6
-45 14 -56 8 -11 17 -36 19 -55 2 -19 3 -10 1 19 -3 52 -2 53 33 67 67 28 128
46 161 49 18 1 33 6 35 11 5 20 -64 15 -135 -10 -108 -38 -108 -38 -108 -28 0
12 104 60 149 69 17 4 34 11 37 15 9 16 -30 9 -96 -18z"/>
<path d="M1101 4414 c0 -11 3 -14 6 -6 3 7 2 16 -1 19 -3 4 -6 -2 -5 -13z"/>
<path d="M942 4373 c-1 -35 1 -44 8 -33 12 18 13 80 2 80 -5 0 -9 -21 -10 -47z"/>
<path d="M1265 4415 c40 -15 117 -34 110 -27 -12 10 -87 32 -106 31 -8 0 -9
-2 -4 -4z"/>
<path d="M1791 4391 c0 -14 -11 -36 -23 -50 l-22 -26 28 26 c20 19 26 33 23
50 l-4 24 -2 -24z"/>
<path d="M1098 4384 c-11 -11 -9 -76 2 -94 8 -13 10 -12 10 3 0 9 5 17 10 17
6 0 10 7 10 15 0 8 -4 15 -9 15 -5 0 -11 12 -13 26 -2 14 -6 22 -10 18z"/>
<path d="M1196 4382 c-10 -17 11 -27 59 -28 29 0 76 -11 113 -26 67 -28 85
-20 25 11 -76 38 -185 62 -197 43z"/>
<path d="M1447 4367 c-3 -8 -1 -20 4 -28 6 -10 9 -7 9 14 0 29 -5 35 -13 14z"/>
<path d="M910 4288 l1 -33 14 25 c18 32 18 40 0 40 -10 0 -15 -10 -15 -32z"/>
<path d="M1639 4203 c-13 -16 -12 -17 4 -4 9 7 17 15 17 17 0 8 -8 3 -21 -13z"/>
<path d="M1559 4123 c-13 -16 -12 -17 4 -4 9 7 17 15 17 17 0 8 -8 3 -21 -13z"/>
<path d="M1270 3992 c0 -8 59 -31 150 -58 8 -2 -12 9 -45 25 -73 36 -105 45
-105 33z"/>
<path d="M3540 3761 c0 -10 19 -25 25 -20 1 2 -3 10 -11 17 -8 7 -14 8 -14 3z"/>
<path d="M3695 3147 c-19 -21 -66 -160 -50 -147 19 16 56 88 65 128 8 33 3 40
-15 19z"/>
<path d="M3480 2972 c0 -25 30 -92 42 -92 4 0 13 10 19 23 7 12 16 25 22 28 5
4 5 14 -2 26 -5 11 -7 24 -3 28 4 4 -5 1 -20 -6 -22 -9 -30 -9 -43 1 -13 10
-15 9 -15 -8z"/>
<path d="M3842 2912 c-12 -2 -29 -14 -38 -27 -14 -21 -14 -29 1 -82 8 -32 17
-65 18 -73 1 -8 11 -28 21 -43 14 -20 21 -56 27 -125 4 -53 11 -105 14 -115 9
-23 -12 -47 -41 -47 -17 0 -24 -6 -24 -19 0 -11 4 -21 10 -23 6 -2 4 -19 -4
-43 -9 -24 -11 -48 -6 -61 6 -14 4 -29 -6 -43 -9 -12 -16 -35 -16 -52 -1 -39
78 -196 109 -216 24 -16 45 -14 178 12 48 10 67 36 68 93 l2 51 -23 -15 c-21
-14 -24 -13 -42 8 -12 15 -15 24 -7 26 15 4 57 86 57 112 0 13 7 20 19 20 24
0 30 -17 25 -66 -4 -31 -3 -35 6 -21 6 9 15 15 20 12 11 -7 32 58 25 78 -5 11
3 19 29 28 20 7 36 17 36 23 0 5 6 17 14 25 31 36 58 225 31 214 -16 -6 -38
133 -25 158 15 27 1 47 -17 24 -10 -15 -13 -15 -13 -4 0 8 -15 30 -34 48 -30
29 -44 34 -124 45 -84 12 -91 11 -95 -5 -3 -11 -12 -16 -23 -14 -11 2 -22 4
-25 4 -3 1 -15 18 -27 39 -34 62 -67 82 -120 74z m371 -258 c24 -11 44 -33 62
-65 24 -45 25 -52 14 -91 -7 -24 -20 -52 -30 -62 -17 -18 -18 -18 -36 19 -20
42 -20 42 -109 80 l-61 26 7 37 c3 20 12 48 19 61 12 21 18 23 56 18 24 -4 59
-14 78 -23z m105 -251 c-3 -67 -3 -67 -35 -74 -28 -5 -32 -3 -38 20 -4 14 -2
27 4 29 6 2 20 23 32 48 13 24 26 44 31 44 5 0 8 -30 6 -67z m-307 -33 c41
-16 75 -30 76 -30 2 0 12 -18 23 -40 29 -57 26 -86 -16 -128 l-36 -36 -19 30
c-12 20 -46 44 -99 70 -87 42 -91 49 -65 111 26 63 36 64 136 23z"/>
<path d="M3367 2592 c-20 -49 -20 -52 -8 -52 11 0 34 66 29 82 -3 7 -12 -7
-21 -30z"/>
<path d="M3433 2565 c-9 -25 4 -29 17 -6 7 15 7 21 0 21 -6 0 -13 -7 -17 -15z"/>
<path d="M3390 2069 c-7 -11 -9 -24 -5 -27 9 -9 40 13 43 32 5 23 -25 20 -38
-5z"/>
<path d="M1333 2053 c-18 -7 -16 -43 2 -43 9 0 15 9 15 25 0 14 -1 25 -2 24
-2 0 -9 -3 -15 -6z"/>
<path d="M3430 2026 c0 -9 7 -16 16 -16 17 0 14 22 -4 28 -7 2 -12 -3 -12 -12z"/>
<path d="M1455 2000 c3 -5 10 -10 16 -10 5 0 9 5 9 10 0 6 -7 10 -16 10 -8 0
-12 -4 -9 -10z"/>
<path d="M1306 1879 c-46 -55 -74 -147 -37 -124 6 3 11 13 11 22 0 8 9 27 20
43 11 15 17 30 13 34 -3 3 -2 6 4 6 10 0 37 50 30 57 -3 2 -21 -15 -41 -38z"/>
<path d="M3800 1805 c0 -17 5 -25 13 -22 6 2 12 12 12 22 0 10 -6 20 -12 23
-8 2 -13 -6 -13 -23z"/>
<path d="M3758 1782 c-6 -25 2 -53 13 -47 12 8 12 52 0 59 -5 3 -11 -2 -13
-12z"/>
<path d="M3974 1765 c-18 -13 -18 -14 4 -8 12 3 25 9 28 14 8 14 -10 11 -32
-6z"/>
<path d="M3806 1571 c-4 -5 -1 -22 6 -37 10 -22 10 -28 0 -32 -6 -2 -12 -10
-12 -18 0 -23 -16 -16 -28 12 -14 30 -32 23 -33 -14 0 -27 0 -27 -11 -4 -13
25 -26 28 -34 7 -4 -10 -14 -13 -30 -9 -14 4 -45 1 -70 -6 -48 -14 -51 -21
-29 -72 4 -11 3 -18 -4 -18 -6 0 -14 14 -17 30 -4 17 -13 30 -21 30 -10 0 -14
-7 -10 -20 3 -11 1 -18 -4 -14 -5 3 -9 12 -9 20 0 32 -25 6 -30 -32 -5 -34 -7
-36 -13 -17 -5 13 -9 36 -9 51 -1 17 -6 29 -14 29 -10 0 -14 -16 -15 -51 -1
-28 0 -55 1 -61 2 -5 2 -18 2 -28 0 -9 3 -15 9 -12 13 8 11 -9 -2 -22 -14 -14
91 4 108 19 18 14 6 28 -23 28 -14 0 -22 4 -19 10 3 5 19 7 34 4 16 -4 37 -1
48 4 15 9 20 6 28 -18 15 -44 36 -25 26 22 -6 27 -5 40 4 48 9 8 15 8 20 0 10
-16 25 -12 25 9 0 31 29 34 36 5 5 -21 1 -31 -22 -50 -16 -13 -23 -23 -16 -24
6 0 12 -7 12 -15 0 -31 125 -8 172 33 33 28 -11 53 -72 42 -33 -6 -37 -5 -32
12 5 20 17 24 27 8 11 -17 23 -11 29 15 7 26 20 32 31 15 9 -14 25 -12 25 3
-1 6 -9 30 -20 52 -11 22 -19 45 -20 52 0 16 -17 26 -24 14z m-150 -127 c-3
-9 -6 -18 -6 -20 0 -2 -9 -4 -20 -4 -25 0 -27 27 -2 33 31 8 34 7 28 -9z m179
-74 c-3 -5 -18 -10 -33 -9 -24 0 -25 1 -7 9 28 12 47 12 40 0z"/>
<path d="M3922 1525 c0 -16 2 -22 5 -12 2 9 2 23 0 30 -3 6 -5 -1 -5 -18z"/>
<path d="M3371 1444 c-1 -12 6 -24 14 -28 8 -3 12 -12 9 -21 -3 -8 -1 -15 5
-15 6 0 11 9 11 20 0 11 -5 20 -10 20 -6 0 -15 10 -20 23 -9 22 -9 22 -9 1z"/>
<path d="M3339 1416 c16 -19 33 -78 20 -71 -5 4 -9 16 -9 28 0 16 -3 18 -12 9
-10 -10 -5 -19 21 -45 19 -17 31 -26 27 -19 -4 7 -1 12 8 12 21 0 20 16 -2 32
-10 7 -17 20 -17 28 1 18 -19 40 -36 40 -9 0 -9 -3 0 -14z"/>
<path d="M3558 1213 c7 -3 16 -2 19 1 4 3 -2 6 -13 5 -11 0 -14 -3 -6 -6z"/>
<path d="M4094 575 c-16 -40 57 -60 80 -22 8 14 8 20 -4 27 -23 15 -70 12 -76
-5z"/>
<path d="M4380 580 c0 -5 5 -10 10 -10 6 0 10 5 10 10 0 6 -4 10 -10 10 -5 0
-10 -4 -10 -10z"/>
<path d="M3952 488 c3 -7 15 -15 27 -16 16 -3 22 1 19 10 -3 7 -15 15 -27 16
-16 3 -22 -1 -19 -10z"/>
<path d="M3830 460 c0 -5 7 -10 15 -10 8 0 15 5 15 10 0 6 -7 10 -15 10 -8 0
-15 -4 -15 -10z"/>
<path d="M1108 429 c-10 -5 -18 -21 -18 -34 0 -19 5 -25 23 -25 13 0 32 6 43
14 18 14 18 15 2 21 -10 4 -18 13 -18 21 0 16 -8 17 -32 3z"/>
<path d="M2204 416 c-17 -45 29 -73 71 -42 16 12 18 18 9 33 -14 23 -72 30
-80 9z m51 -16 c3 -5 -1 -10 -9 -10 -9 0 -16 5 -16 10 0 6 4 10 9 10 6 0 13
-4 16 -10z"/>
<path d="M1973 408 c-28 -6 -43 -15 -43 -25 0 -13 9 -15 44 -11 39 5 76 25 76
42 0 8 -26 6 -77 -6z"/>
<path d="M3925 400 c-3 -5 3 -10 14 -10 11 0 23 5 26 10 3 6 -3 10 -14 10 -11
0 -23 -4 -26 -10z"/>
<path d="M1596 393 c-4 -4 -25 -6 -47 -4 -54 4 -197 -28 -203 -46 -7 -17 40
-46 99 -63 36 -10 68 -9 194 9 148 20 221 43 221 67 0 16 -17 21 -120 34 -99
12 -134 13 -144 3z m189 -32 c20 -4 26 -9 18 -14 -12 -8 -121 7 -131 18 -7 7
76 4 113 -4z"/>
<path d="M3034 369 c-6 -11 13 -39 27 -39 5 0 9 9 9 19 0 21 -26 36 -36 20z"/>
</g>
</svg>
